<?xml version="1.0" ?><svg data-name="Layer 1" id="Layer_1" viewBox="0 0 272 272" xmlns="http://www.w3.org/2000/svg"><defs><style>.cls-1{fill:#efefef;}.cls-2{fill:#f3f4f2;}.cls-3{fill:#ffd54f;}.cls-4{fill:#4fc2f8;}.cls-5{fill:#f06292;}</style></defs><title/><path class="cls-1" d="M54.5,67.83q-1.71.16-3.33.37C52.25,68.06,53.36,67.94,54.5,67.83Z"/><polygon class="cls-1" points="48 68.67 48 68.67 48 68.67 48 68.67"/><path class="cls-1" d="M82.1,26l.09-.24Z"/><polygon class="cls-1" points="82.94 24 82.94 24 82.94 24 82.94 24"/><path class="cls-1" d="M80.8,30.49l.14-.58Z"/><path class="cls-1" d="M81.4,28.2l.12-.42Z"/><path class="cls-1" d="M79.61,38.25c0-.31.06-.6.09-.9C79.67,37.65,79.63,37.94,79.61,38.25Z"/><path class="cls-1" d="M80.31,32.92c0-.24.09-.48.13-.71C80.4,32.45,80.35,32.68,80.31,32.92Z"/><path class="cls-1" d="M79.4,41.14c0-.29,0-.57.06-.86C79.44,40.57,79.41,40.85,79.4,41.14Z"/><path class="cls-1" d="M79.91,35.51c0-.28.08-.55.12-.83C80,35,79.95,35.23,79.91,35.51Z"/><path class="cls-2" d="M90.1,16.49c3-1,7-2.45,10-3.38,10.11-2.61,10.5-2.71,16.48-3.65C127.18,8.19,128,8.09,134.9,8c11.16.28,12.32.31,20.24,1.41,11.24,2.11,13,2.43,22,5.33,10.87,4.15,13.13,5,22.88,10.38,10.13,6.42,12.54,7.94,22.15,16.23C195.4,16.95,149.43,19.93,107.37,47.1c-6.8-6.2-17.62-6.95-28.09-2.93C79.63,28.41,83.52,19,90.1,16.49"/><path class="cls-3" d="M17.61,87.22l2.33-5.32c4.73-9.38,4.82-9.56,7.88-14.41,5.7-8.42,5.81-8.58,9.22-12.73C43.81,47,43.81,47,47.6,43.41c7.59-6.83,7.59-6.83,11.63-9.86,8.15-5.75,8.15-5.75,12.47-8.26,8.66-4.69,8.82-4.78,13.55-6.82l4.85-2C83.52,19,79.63,28.41,79.28,44.18a45.24,45.24,0,0,0-14.91,9.53A41.78,41.78,0,0,0,54.5,67.83c-19.82,1.84-32.57,8.82-36.88,19.39"/><path class="cls-2" d="M49.81,230.66h0c-4.13-4.08-9.47-9.69-13.28-14.06-7.92-10.61-11.9-15.93-18.76-31.34-4.22-11.33-5-13.37-7.4-24.32C8.49,149.12,8.25,147.6,8,137.87c.26-11.74.28-12.69,1.43-21,2.06-11.06,2.18-11.72,4.25-18.62,1.15-3.34,2.68-7.79,4-11.07C21.92,76.65,34.67,69.68,54.5,67.83c-4.07,9.86-3,19.94,3.78,26.13h0c-32.66,45.21-40,98.92-14.63,130.17a60,60,0,0,0,6.16,6.53"/><path class="cls-4" d="M181.86,255.51c-3,1-7,2.45-10,3.38-10.11,2.61-10.5,2.71-16.48,3.65-10.58,1.27-11.44,1.38-18.3,1.48-11.16-.28-12.32-.31-20.24-1.41-11.24-2.11-13-2.43-22-5.33-10.87-4.15-13.13-5-22.88-10.38-10.13-6.42-12.54-7.94-22.15-16.23a60.05,60.05,0,0,1-6.16-6.53c-25.37-31.25-18-85,14.63-130.17,6.8,6.2,17.62,6.95,28.09,2.93,12.06,49.87,37.58,107,62.95,138.25,13.63,16.78,24.9,23.25,32.54,20.37"/><path class="cls-2" d="M254.34,184.77,252,190.09c-4.73,9.38-4.82,9.56-7.88,14.41-5.7,8.42-5.81,8.58-9.22,12.73-6.76,7.74-6.76,7.74-10.55,11.35-7.59,6.83-7.59,6.83-11.63,9.86-8.15,5.75-8.15,5.75-12.47,8.26-8.66,4.69-8.82,4.78-13.55,6.82l-4.85,2c-7.64,2.88-18.91-3.58-32.54-20.37C123.95,203.9,98.43,146.76,86.37,96.89a45.24,45.24,0,0,0,14.91-9.53,41.78,41.78,0,0,0,9.87-14.13c51.52,12.21,106,41.68,131.38,72.93,12.37,15.24,15.91,28.55,11.81,38.6"/><path class="cls-5" d="M222.15,41.34c4.13,4.08,9.47,9.69,13.28,14.06,7.92,10.61,11.9,15.93,18.76,31.34,4.22,11.33,5,13.37,7.4,24.32,1.88,11.81,2.12,13.33,2.42,23.06-.26,11.74-.28,12.69-1.43,21-2.06,11.06-2.18,11.72-4.25,18.62-1.15,3.34-2.68,7.79-4,11.07,4.1-10.06.56-23.37-11.81-38.6-25.37-31.25-79.86-60.72-131.38-72.93,4.07-9.86,3-19.94-3.78-26.13,42.06-27.18,88-30.16,114.78-5.77"/><path class="cls-1" d="M132.22,34l.73-.3Z"/><path class="cls-1" d="M107.37,47.1q1.87-1.21,3.75-2.35Q109.24,45.9,107.37,47.1Z"/><path class="cls-1" d="M128.4,35.66l1.09-.48Z"/><path class="cls-1" d="M112.55,43.91c.77-.46,1.54-.91,2.31-1.36C114.08,43,113.31,43.45,112.55,43.91Z"/><path class="cls-1" d="M124.55,37.45l1.36-.65Z"/><path class="cls-1" d="M116.68,41.53l1.89-1Z"/><path class="cls-1" d="M120.64,39.4l1.61-.83Z"/><path class="cls-1" d="M58.28,94q-1.45,2-2.82,4Q56.83,96,58.28,94Z"/><path class="cls-1" d="M53.35,101.16l-.51.78Z"/><path class="cls-1" d="M111.15,73.24c4.07-9.86,3-19.94-3.78-26.13s-17.62-6.95-28.09-2.93a45.23,45.23,0,0,0-14.91,9.53A41.78,41.78,0,0,0,54.5,67.83c-4.07,9.86-3,19.94,3.78,26.13h0c6.8,6.2,17.62,6.95,28.09,2.93a45.24,45.24,0,0,0,14.91-9.53A41.78,41.78,0,0,0,111.15,73.24Z"/><polygon class="cls-1" points="136 80.37 136 80.37 136 80.37 136 80.37"/><path class="cls-1" d="M122.74,76.27l1.48.42Z"/><path class="cls-1" d="M129.44,78.26l.44.13Z"/><path class="cls-1" d="M116.82,74.66l1.57.42Z"/><path class="cls-1" d="M88.4,104.84l-.26-1Z"/><polygon class="cls-1" points="90.37 112 90.37 112 90.37 112 90.37 112"/><path class="cls-1" d="M54.53,67.84q-1.7.16-3.33.37C52.29,68.07,53.4,67.95,54.53,67.84Z"/><polygon class="cls-1" points="48.04 68.68 48.04 68.68 48.04 68.68 48.04 68.68"/><path class="cls-1" d="M82.14,26.06l.09-.24Z"/><polygon class="cls-1" points="82.97 24.02 82.97 24.02 82.97 24.02 82.97 24.02"/><path class="cls-1" d="M80.84,30.5l.14-.58Z"/><path class="cls-1" d="M81.43,28.21l.12-.42Z"/><path class="cls-1" d="M79.64,38.27c0-.31.06-.6.09-.9C79.7,37.67,79.67,38,79.64,38.27Z"/><path class="cls-1" d="M80.34,32.94c0-.24.09-.48.13-.71C80.43,32.46,80.38,32.7,80.34,32.94Z"/><path class="cls-1" d="M79.43,41.15c0-.29,0-.57.06-.86C79.47,40.58,79.44,40.86,79.43,41.15Z"/><path class="cls-1" d="M79.94,35.53c0-.28.08-.55.12-.83C80,35,80,35.25,79.94,35.53Z"/><path class="cls-2" d="M90.13,16.51c3-1,7-2.45,10-3.38,10.1-2.61,10.5-2.71,16.47-3.65C127.2,8.21,128.06,8.11,134.93,8c11.15.28,12.32.31,20.24,1.41,11.24,2.11,13,2.43,22,5.33,10.87,4.15,13.13,5,22.87,10.38,10.13,6.42,12.54,7.94,22.14,16.23C195.41,17,149.45,19.94,107.4,47.12c-6.79-6.2-17.61-6.95-28.09-2.93.36-15.76,4.24-25.2,10.82-27.68"/><path class="cls-3" d="M17.66,87.23,20,81.91c4.73-9.38,4.82-9.56,7.88-14.41,5.7-8.42,5.81-8.58,9.22-12.73C43.85,47,43.85,47,47.63,43.42c7.59-6.83,7.59-6.83,11.62-9.86,8.15-5.75,8.15-5.75,12.47-8.26,8.66-4.69,8.82-4.78,13.55-6.82l4.85-2C83.55,19,79.67,28.43,79.31,44.19A45.23,45.23,0,0,0,64.4,53.72a41.78,41.78,0,0,0-9.87,14.12C34.71,69.69,22,76.66,17.66,87.23"/><path class="cls-2" d="M49.85,230.65h0c-4.13-4.08-9.47-9.68-13.28-14.06-7.92-10.6-11.9-15.93-18.75-31.34-4.22-11.33-5-13.37-7.4-24.32C8.54,149.12,8.29,147.6,8,137.88c.26-11.73.28-12.69,1.43-21,2.06-11.06,2.18-11.72,4.25-18.62,1.15-3.34,2.67-7.79,4-11.07C22,76.66,34.71,69.69,54.53,67.84c-4.07,9.86-3,19.94,3.78,26.13h0c-32.66,45.2-40,98.91-14.62,130.15a60,60,0,0,0,6.16,6.53"/><path class="cls-4" d="M181.87,255.49c-3,1-7,2.45-10,3.38-10.1,2.61-10.5,2.71-16.47,3.65-10.57,1.27-11.44,1.38-18.3,1.48-11.15-.28-12.32-.31-20.24-1.41-11.24-2.11-13-2.43-22-5.33C84,253.1,81.74,252.24,72,246.88c-10.13-6.42-12.54-7.94-22.14-16.23a60,60,0,0,1-6.16-6.53C18.32,192.88,25.66,139.17,58.31,94c6.79,6.19,17.61,6.95,28.09,2.93,12.06,49.86,37.57,107,62.94,138.23,13.62,16.78,24.9,23.25,32.53,20.36"/><path class="cls-2" d="M254.34,184.77,252,190.09c-4.73,9.38-4.82,9.56-7.88,14.41-5.7,8.42-5.81,8.58-9.22,12.73-6.76,7.74-6.76,7.74-10.55,11.35-7.59,6.83-7.59,6.83-11.62,9.86-8.15,5.75-8.15,5.75-12.47,8.26-8.66,4.69-8.82,4.78-13.55,6.82l-4.85,2c-7.64,2.88-18.91-3.58-32.53-20.36C124,203.89,98.46,146.76,86.4,96.9a45.23,45.23,0,0,0,14.91-9.53,41.78,41.78,0,0,0,9.87-14.12c51.51,12.21,106,41.68,131.36,72.92,12.37,15.23,15.91,28.54,11.81,38.6"/><path class="cls-5" d="M222.15,41.35c4.13,4.08,9.47,9.68,13.28,14.06,7.92,10.6,11.9,15.93,18.75,31.34,4.22,11.33,5,13.37,7.4,24.32,1.88,11.81,2.12,13.33,2.42,23.06-.26,11.73-.28,12.69-1.43,21-2.06,11.06-2.18,11.72-4.25,18.62-1.15,3.34-2.67,7.79-4,11.07,4.1-10.06.56-23.37-11.81-38.6-25.37-31.24-79.85-60.71-131.36-72.92,4.07-9.86,3-19.94-3.78-26.13,42.05-27.17,88-30.15,114.76-5.77"/><path class="cls-1" d="M132.24,34l.73-.3Z"/><path class="cls-1" d="M107.4,47.12q1.87-1.21,3.75-2.35Q109.27,45.91,107.4,47.12Z"/><path class="cls-1" d="M128.43,35.67l1.09-.48Z"/><path class="cls-1" d="M112.57,43.92c.77-.46,1.54-.91,2.31-1.36C114.11,43,113.34,43.46,112.57,43.92Z"/><path class="cls-1" d="M124.57,37.46l1.36-.65Z"/><path class="cls-1" d="M116.7,41.55l1.89-1Z"/><path class="cls-1" d="M120.67,39.42l1.61-.83Z"/><path class="cls-1" d="M58.31,94q-1.45,2-2.82,4Q56.87,96,58.31,94Z"/><path class="cls-1" d="M53.39,101.17l-.51.78Z"/><path class="cls-1" d="M111.18,73.25c4.07-9.86,3-19.94-3.78-26.13s-17.61-6.95-28.09-2.93A45.23,45.23,0,0,0,64.4,53.72a41.78,41.78,0,0,0-9.87,14.12c-4.07,9.86-3,19.94,3.78,26.13h0c6.79,6.19,17.61,6.95,28.09,2.93a45.23,45.23,0,0,0,14.91-9.53A41.77,41.77,0,0,0,111.18,73.25Z"/><polygon class="cls-1" points="136.02 80.38 136.02 80.38 136.02 80.38 136.02 80.38"/><path class="cls-1" d="M122.76,76.28l1.48.42Z"/><path class="cls-1" d="M129.47,78.27l.44.13Z"/><path class="cls-1" d="M116.85,74.67l1.57.42Z"/><path class="cls-1" d="M88.43,104.84l-.26-1Z"/><polygon class="cls-1" points="90.4 112 90.4 112 90.4 112 90.4 112"/></svg>