<?xml version="1.0" ?><svg data-name="Layer 1" id="Layer_1" viewBox="0 0 272 272" xmlns="http://www.w3.org/2000/svg"><defs><style>.cls-1{fill:#4fc2f8;}.cls-2{fill:#f06292;}</style></defs><title/><path class="cls-1" d="M133,46.94l-5.9,97.42L124.71,184l-1.85,30.62a52.09,52.09,0,0,1-104,1L16.35,184l-.64-8-1.39-17.19-1.24-15.47L9,92.91C7.64,51.06,38.06,15,79.23,9.76L90.56,8.31C113.43,5.38,133.54,23.68,133,46.94Z"/><path class="cls-2" d="M90.78,64.91l1.79-10a7.5,7.5,0,0,0-6-8.72,7.4,7.4,0,0,0-8.59,6L75.78,64.76c-19.34,9-60,31.57-66.09,65.59a101.3,101.3,0,0,0,2.8,48.54,7.39,7.39,0,0,0,7,5.15h0a7.45,7.45,0,0,0,7-9.75c-4.05-12.51-4.89-26.8-2.31-41.26,4.61-25.81,38.63-46.12,58.58-55.12,15.56,15.57,40.42,46.78,35.83,72.48a91.29,91.29,0,0,1-7.24,22.88A7.49,7.49,0,0,0,118.06,184h0a7.42,7.42,0,0,0,6.69-4.31,105.8,105.8,0,0,0,8.46-26.66C139.76,116.38,104.06,77.79,90.78,64.91Z"/><path class="cls-1" d="M139,46.94l5.9,97.42,2.4,39.64,1.85,30.62a52.09,52.09,0,0,0,104,1L255.65,184l.64-8,1.39-17.19,1.24-15.47,4-50.43c1.39-41.85-29-77.87-70.2-83.15L181.44,8.31C158.57,5.38,138.46,23.68,139,46.94Z"/><path class="cls-2" d="M181.22,64.91l-1.79-10a7.5,7.5,0,0,1,6-8.72,7.4,7.4,0,0,1,8.59,6l2.24,12.56c19.34,9,60,31.57,66.09,65.59a101.3,101.3,0,0,1-2.8,48.54,7.39,7.39,0,0,1-7,5.15h0a7.45,7.45,0,0,1-7-9.75c4.05-12.51,4.89-26.8,2.31-41.26-4.61-25.81-38.63-46.12-58.58-55.12-15.56,15.57-40.42,46.78-35.83,72.48a91.29,91.29,0,0,0,7.24,22.88A7.49,7.49,0,0,1,153.94,184h0a7.42,7.42,0,0,1-6.69-4.31,105.8,105.8,0,0,1-8.46-26.66C132.24,116.38,167.94,77.79,181.22,64.91Z"/></svg>