<?xml version="1.0" ?><svg data-name="Layer 1" id="Layer_1" viewBox="0 0 272 272" xmlns="http://www.w3.org/2000/svg"><defs><style>.cls-1{fill:#ffd54f;}.cls-2{fill:#f06292;}.cls-3{fill:#e91d62;}</style></defs><title/><path class="cls-1" d="M128,176h16a0,0,0,0,1,0,0v80a8,8,0,0,1-8,8h0a8,8,0,0,1-8-8V176a0,0,0,0,1,0,0Z"/><path class="cls-2" d="M192,64V195a5,5,0,0,1-5,5H85a5,5,0,0,1-5-5V64a56,56,0,0,1,112,0Z"/><path class="cls-3" d="M192,64V82.67c0,10.31-7.16,18.66-16,18.66S160,93,160,82.67c0-5.16-3.58-9.34-8-9.34s-8,4.18-8,9.34S140.42,92,136,92s-8-4.18-8-9.33V78c0-2.58-1.79-4.67-4-4.67s-4,2.09-4,4.67V96.67c0,12.88-9,23.33-20,23.33S80,109.55,80,96.67V64a56,56,0,0,1,112,0Z"/></svg>